<?xml version="1.0" standalone="no"?>
<!DOCTYPE svg PUBLIC "-//W3C//DTD SVG 20010904//EN"
 "http://www.w3.org/TR/2001/REC-SVG-20010904/DTD/svg10.dtd">
<svg version="1.0" xmlns="http://www.w3.org/2000/svg"
 width="485.000000pt" height="303.000000pt" viewBox="0 0 485.000000 303.000000"
 preserveAspectRatio="xMidYMid meet">

<g transform="translate(0.000000,303.000000) scale(0.100000,-0.100000)"
fill="#000000" stroke="none">
<path d="M1614 2268 c-49 -44 -81 -97 -99 -165 -20 -78 -18 -126 8 -204 33
-97 77 -163 226 -337 74 -86 153 -183 177 -215 76 -103 106 -220 81 -315 l-14
-52 36 21 c254 148 365 458 267 740 -65 188 -247 356 -450 418 -98 30 -101 26
-17 -20 202 -110 347 -246 401 -376 45 -108 58 -223 37 -327 -22 -107 -75
-214 -138 -281 -29 -30 -55 -55 -59 -55 -4 0 -3 23 2 51 22 120 -35 238 -216
447 -175 202 -217 258 -258 339 -34 69 -41 91 -41 145 0 75 17 121 68 177 45
49 40 53 -11 9z"/>
<path d="M2631 1773 c-59 -31 -75 -63 -86 -176 -9 -92 -6 -185 11 -260 19 -87
133 -132 193 -76 25 24 27 24 34 -1 4 -15 14 -20 41 -20 l36 0 0 140 0 140
-85 0 -85 0 0 -40 c0 -38 2 -40 30 -40 29 0 30 -1 30 -48 0 -72 -45 -106 -83
-64 -14 16 -17 44 -17 185 0 179 5 197 55 197 29 0 42 -22 48 -81 l4 -44 46
-3 47 -3 0 48 c0 56 -24 108 -62 136 -38 28 -114 33 -157 10z"/>
<path d="M2983 1776 c-65 -30 -93 -126 -58 -200 8 -17 42 -56 75 -85 33 -29
67 -66 76 -82 19 -37 15 -78 -9 -93 -15 -9 -22 -7 -38 13 -10 13 -19 37 -19
53 0 29 0 30 -42 23 -56 -9 -62 -16 -53 -61 13 -74 99 -126 171 -105 73 21
104 59 104 126 0 59 -27 105 -105 182 -60 58 -75 79 -75 102 0 44 10 61 35 61
25 0 35 -17 35 -57 0 -24 2 -25 38 -19 20 3 45 6 55 6 35 0 13 72 -37 119 -32
30 -106 38 -153 17z"/>
<path d="M3240 1510 l0 -273 96 6 c147 10 186 43 188 157 1 66 -20 105 -67
125 l-31 13 32 16 c39 20 52 44 52 96 0 50 -23 94 -59 111 -14 7 -68 14 -118
17 l-93 4 0 -272z m170 181 c5 -11 10 -34 10 -51 0 -47 -16 -70 -50 -70 l-30
0 0 70 0 70 30 0 c19 0 33 -7 40 -19z m-4 -212 c14 -15 19 -36 19 -75 0 -59
-14 -82 -55 -86 -25 -3 -25 -3 -28 90 -3 91 -3 92 21 92 13 0 32 -9 43 -21z"/>
<path d="M3056 1102 c-3 -5 -47 -9 -98 -11 -51 -1 -111 -6 -133 -11 -30 -6 -7
-8 90 -8 72 1 136 6 143 12 9 6 19 6 30 0 9 -6 75 -11 146 -13 113 -3 127 -1
115 12 -9 9 -16 11 -20 5 -4 -6 -15 -8 -25 -4 -11 3 -61 6 -112 7 -51 2 -95 6
-98 11 -7 10 -31 10 -38 0z"/>
</g>
</svg>
